<svg width="" height="" viewBox="0 0 304 84" fill="currentColor" xmlns="http://www.w3.org/2000/svg">
    <rect width="" height="" fill="currentColor"/>
    <path d="M131.615 51.0475H135.774V43.9184H137.582L141.999 51.0475H146.441L141.56 43.1952C143.729 42.5495 145.357 41.0771 145.357 38.2875V38.1842C145.357 34.3614 142.593 32.5791 138.227 32.5791H131.615V51.0475ZM135.774 41.0771V35.782H138.124C140.139 35.782 141.275 36.4278 141.275 38.3133V38.4167C141.275 40.199 140.216 41.0771 138.124 41.0771H135.774Z" fill="currentColor"/>
    <path d="M153.579 51.3316C157.273 51.3316 159.598 49.7044 160.037 46.7855H156.498C156.265 47.9221 155.413 48.6712 153.683 48.6712C151.642 48.6712 150.428 47.3797 150.325 45.1325H160.063V44.0993C160.063 39.269 156.963 37.2285 153.476 37.2285C149.55 37.2285 146.528 39.9923 146.528 44.2542V44.4608C146.528 48.7745 149.498 51.3316 153.579 51.3316ZM150.376 42.8336C150.66 40.9222 151.797 39.8115 153.476 39.8115C155.258 39.8115 156.291 40.793 156.421 42.8336H150.376Z" fill="currentColor"/>
    <path d="M161.843 51.0475H165.562V31.4167H161.843V51.0475Z" fill="currentColor"/>
    <path d="M172.698 51.3317C174.92 51.3317 176.288 50.2985 176.986 48.9296V51.0476H180.705V37.5386H176.986V45.4683C176.986 47.4573 175.746 48.4388 174.171 48.4388C172.57 48.4388 171.82 47.5606 171.82 45.7266V37.5386H168.101V46.2432C168.101 49.7819 170.064 51.3317 172.698 51.3317Z" fill="currentColor"/>
    <path d="M183.244 51.0475H186.99V43.0661C186.99 41.2322 188.152 40.3022 189.599 40.3022C190.916 40.3022 191.717 41.0771 191.717 42.8078V51.0475H195.437V43.0661C195.437 41.2322 196.599 40.3022 198.045 40.3022C199.388 40.3022 200.163 41.0771 200.163 42.8078V51.0475H203.883V42.3945C203.883 38.8041 201.946 37.2285 199.44 37.2285C197.735 37.2285 195.979 37.9517 194.894 39.579C194.248 37.9776 192.905 37.2285 191.123 37.2285C189.108 37.2285 187.661 38.3392 186.99 39.6048V37.5384H183.244V51.0475Z" fill="currentColor"/>
    <path d="M212.532 51.3316C216.226 51.3316 218.551 49.7044 218.989 46.7855H215.451C215.218 47.9221 214.366 48.6712 212.635 48.6712C210.594 48.6712 209.381 47.3797 209.277 45.1325H219.015V44.0993C219.015 39.269 215.915 37.2285 212.428 37.2285C208.502 37.2285 205.48 39.9923 205.48 44.2542V44.4608C205.48 48.7745 208.451 51.3316 212.532 51.3316ZM209.329 42.8336C209.613 40.9222 210.75 39.8115 212.428 39.8115C214.211 39.8115 215.244 40.793 215.374 42.8336H209.329Z" fill="currentColor"/>
    <path fill-rule="evenodd" clip-rule="evenodd" d="M117.303 33.684L117.052 33.2356C116.728 32.6932 116.271 32.2425 115.725 31.9261L103.689 24.9843C103.143 24.6682 102.525 24.5011 101.895 24.5H101.375C100.745 24.5011 100.126 24.6682 99.5808 24.9843L87.5449 31.9441C87.0013 32.2584 86.5498 32.7099 86.2354 33.2535L85.9843 33.7019C85.6682 34.2469 85.5011 34.8656 85.5 35.4956V49.3972C85.5011 50.0273 85.6682 50.6459 85.9843 51.1909L86.2354 51.6394C86.5579 52.1766 87.0076 52.6263 87.5449 52.9488L99.5988 59.8905C100.141 60.2132 100.762 60.3808 101.393 60.3748H101.895C102.525 60.3737 103.143 60.2067 103.689 59.8905L115.725 52.9309C116.273 52.6236 116.727 52.1704 117.034 51.6214L117.303 51.173C117.615 50.6264 117.782 50.0087 117.787 49.3792V35.4777C117.786 34.8477 117.619 34.229 117.303 33.684ZM101.375 28.0874H101.895L112.406 34.1503L101.644 40.3566L90.8812 34.1503L101.375 28.0874ZM103.437 55.8906L113.931 49.8277L114.2 49.3793V37.2536L103.437 43.4779V55.8906Z" fill="currentColor"/>
</svg>