<svg width="304" height="84" viewBox="0 0 304 84" fill="currentColor" xmlns="http://www.w3.org/2000/svg">
    <rect width="" height="" fill=""/>
    <path d="M128.437 38.4458C128.437 36.0574 126.122 33.5238 122.106 33.5238C117.596 33.5238 112.648 36.826 111.882 43.4248C111.109 50.0961 115.263 53.044 119.436 53.044C123.608 53.044 125.804 51.4184 128.035 49.2393C126.109 46.8138 123.625 47.9426 123.155 48.1789C122.636 48.4393 121.954 48.7995 120.569 48.7995C118.952 48.7995 117.312 48.0679 117.312 45.0659C127.649 44.0752 128.437 40.8356 128.437 38.4458ZM123.315 38.8458C123.248 39.5817 122.946 40.8556 117.715 41.5559C118.818 37.6387 120.922 37.3484 121.894 37.3484C122.805 37.3484 123.386 38.0544 123.315 38.8458ZM105.807 39.482C105.807 39.482 103.584 46.4537 103.412 47.0388C103.352 46.4537 101.725 33.9309 101.725 33.9309C97.9388 33.9309 95.9134 36.6211 94.8459 39.4792C94.8459 39.4792 92.1414 46.4708 91.9222 47.0558C91.9095 46.5078 91.5066 39.5518 91.5066 39.5518C91.2775 36.056 88.0863 33.9394 85.5 33.9394L88.6101 52.9116C92.5827 52.8987 94.7092 50.2128 95.8309 47.3604C95.8309 47.3604 98.2093 41.1915 98.3075 40.9112C98.3317 41.1787 100.018 52.9116 100.018 52.9116C103.994 52.9116 106.139 50.3965 107.293 47.6466L112.871 33.9394C108.943 33.9394 106.875 36.6225 105.807 39.482ZM143.038 33.4981C140.595 33.4981 138.711 34.8262 137.126 36.789L137.129 36.7748L138.538 25.375C135.284 25.375 132.625 28.2076 132.12 32.4093L129.645 52.7636C131.522 52.7636 133.51 52.2184 134.584 50.8392C135.544 52.0732 136.972 53.0568 139.086 53.0568C144.573 53.0568 148.345 46.6786 148.345 40.6905C148.345 35.2262 145.686 33.4981 143.038 33.4981ZM142.535 43.2768C141.965 46.6246 140.105 48.882 138.303 48.882C136.487 48.882 135.719 48.0792 135.719 48.0792C136.058 45.1528 136.283 43.3579 136.945 41.8121C137.605 40.2664 139.167 37.7997 140.801 37.7997C142.389 37.7997 143.104 39.9305 142.535 43.2768ZM162.1 33.9409H158.259L158.277 33.7402C158.539 31.2322 159.14 29.9156 161.084 29.7134C162.412 29.5768 163.013 28.8865 163.152 28.1406C163.262 27.5556 163.633 25.4874 163.633 25.4874C155.927 25.4433 153.512 28.7697 152.895 33.8256L152.881 33.9394L152.806 33.9423C151.554 33.9423 150.181 35.3586 149.94 37.1577L149.856 37.8195H152.419L150.268 55.6245L149.616 58.8242L149.881 58.8328C153.477 58.6961 155.792 55.8594 156.303 51.7288L157.982 37.8195H159.187C160.365 37.8195 161.75 36.6382 162.006 34.6639L162.1 33.9409ZM182.036 33.6107C177.609 33.6107 173.438 36.8687 172.155 41.9943C170.874 47.1185 172.822 53.1692 179.327 53.1692C185.835 53.1692 189.574 46.8622 189.574 41.6257C189.574 36.3862 186.033 33.6107 182.036 33.6107ZM183.831 43.1245C183.602 45.4488 182.577 48.9603 179.776 48.9603C176.963 48.9603 177.363 44.8396 177.635 42.8839C177.927 40.7873 179.105 37.8195 181.612 37.8195C183.876 37.8195 184.09 40.4997 183.831 43.1245ZM211.434 39.482C211.434 39.482 209.211 46.4537 209.04 47.0388C208.979 46.4537 207.352 33.9309 207.352 33.9309C203.566 33.9309 201.542 36.6211 200.473 39.4792C200.473 39.4792 197.77 46.4708 197.551 47.0558C197.538 46.5078 197.135 39.5518 197.135 39.5518C196.906 36.056 193.713 33.9394 191.128 33.9394L194.237 52.9116C198.21 52.8987 200.338 50.2128 201.459 47.3604C201.459 47.3604 203.838 41.1915 203.936 40.9112C203.96 41.1787 205.645 52.9116 205.645 52.9116C209.621 52.9116 211.766 50.3965 212.92 47.6466L218.5 33.9394C214.57 33.9394 212.502 36.6225 211.434 39.482ZM165.716 25.4874L162.49 51.501L162.482 51.4967L161.827 54.7136L162.09 54.7221C165.563 54.6794 168.027 51.632 168.491 47.7888L170.354 32.8576C170.919 28.31 168.208 25.4874 165.716 25.4874Z" fill="currentColor"/>
</svg>